<svg width="112" height="113" viewBox="0 0 112 113" fill="none" xmlns="http://www.w3.org/2000/svg">
<path d="M50.3964 4.19856L50.5206 47.9067C50.5259 49.7885 49.0132 51.248 47.193 51.2532L3.48019 51.3774C1.66001 51.3825 0.13905 49.9317 0.133702 48.0499L0.00949628 4.34174C0.00431037 2.51682 1.51682 0.99569 3.337 0.990517L47.0451 0.866311C48.8653 0.861139 50.3864 2.37365 50.3916 4.19383L50.3964 4.19856ZM107.924 61.4045L3.50953 61.7012C1.68934 61.7064 0.176833 63.2275 0.182005 65.0477L0.22686 80.8321C0.27585 98.0717 14.3368 112.053 31.5811 112.004L80.1431 111.866C97.3827 111.817 111.369 97.756 111.32 80.5164L111.275 64.732C111.27 62.9118 109.749 61.3993 107.928 61.4045L107.924 61.4045ZM107.751 0.693802L64.043 0.818008C62.2228 0.823181 60.7103 2.34431 60.7155 4.16449L60.8397 47.8773C60.845 49.7592 62.366 51.21 64.1862 51.2049L107.894 51.0807C109.714 51.0755 111.227 49.616 111.222 47.7342L111.098 4.02606C111.092 2.20588 109.571 0.69337 107.751 0.698542L107.751 0.693802Z" fill="url(#paint0_linear_8_875)"/>
<defs>
<linearGradient id="paint0_linear_8_875" x1="-2.5693" y1="84.343" x2="117.673" y2="14.464" gradientUnits="userSpaceOnUse">
<stop stop-color="#4772FF"/>
<stop offset="0.56" stop-color="#BE659D"/>
<stop offset="1" stop-color="#FF5C42"/>
</linearGradient>
</defs>
</svg>
