<svg width="28" height="26" viewBox="0 0 28 26" fill="none" xmlns="http://www.w3.org/2000/svg">
<path fill-rule="evenodd" clip-rule="evenodd" d="M6.53932 2.22015H22.105C23.9951 2.22015 25.4405 3.66323 25.4405 5.55033V16.6509C25.4405 18.538 23.9951 19.9811 22.105 19.9811H9.20772L5.09393 24.0883C4.87156 24.3103 4.6492 24.4213 4.31565 24.4213C4.20446 24.4213 3.9821 24.4213 3.87091 24.3103C3.42618 24.1993 3.20381 23.7553 3.20381 23.3113V5.55033C3.20381 3.66323 4.6492 2.22015 6.53932 2.22015ZM22.105 17.7609C22.7721 17.7609 23.2168 17.3169 23.2168 16.6509V5.5503C23.2168 4.88426 22.7721 4.44024 22.105 4.44024H6.53931C5.87221 4.44024 5.42748 4.88426 5.42748 5.5503V20.6471L7.9847 18.094C8.20706 17.872 8.42943 17.7609 8.76298 17.7609H22.105Z" fill="black"/>
<mask id="mask0_76_3291" style="mask-type:alpha" maskUnits="userSpaceOnUse" x="3" y="2" width="23" height="23">
<path fill-rule="evenodd" clip-rule="evenodd" d="M6.53932 2.22015H22.105C23.9951 2.22015 25.4405 3.66323 25.4405 5.55033V16.6509C25.4405 18.538 23.9951 19.9811 22.105 19.9811H9.20772L5.09393 24.0883C4.87156 24.3103 4.6492 24.4213 4.31565 24.4213C4.20446 24.4213 3.9821 24.4213 3.87091 24.3103C3.42618 24.1993 3.20381 23.7553 3.20381 23.3113V5.55033C3.20381 3.66323 4.6492 2.22015 6.53932 2.22015ZM22.105 17.7609C22.7721 17.7609 23.2168 17.3169 23.2168 16.6509V5.5503C23.2168 4.88426 22.7721 4.44024 22.105 4.44024H6.53931C5.87221 4.44024 5.42748 4.88426 5.42748 5.5503V20.6471L7.9847 18.094C8.20706 17.872 8.42943 17.7609 8.76298 17.7609H22.105Z" fill="white"/>
</mask>
<g mask="url(#mask0_76_3291)">
<rect x="0.980148" width="26.684" height="26.6414" fill="#F4F4F4"/>
</g>
</svg>
