<svg width="21" height="20" viewBox="0 0 21 20" fill="none" xmlns="http://www.w3.org/2000/svg">
<g clip-path="url(#clip0_76_3788)">
<path fill-rule="evenodd" clip-rule="evenodd" d="M3.35415 5.83053H18.3541C18.8541 5.83053 19.1875 5.49736 19.1875 4.9976C19.1875 4.49784 18.8541 4.16467 18.3541 4.16467H3.35415C2.85415 4.16467 2.52081 4.49784 2.52081 4.9976C2.52081 5.49736 2.85415 5.83053 3.35415 5.83053ZM19.1875 9.99518C19.1875 10.4949 18.8541 10.8281 18.3541 10.8281H3.35415C2.85415 10.8281 2.52081 10.4949 2.52081 9.99518C2.52081 9.49542 2.85415 9.16225 3.35415 9.16225H18.3541C18.8541 9.16225 19.1875 9.49542 19.1875 9.99518ZM3.35415 14.1598H18.3541C18.8541 14.1598 19.1875 14.493 19.1875 14.9928C19.1875 15.4925 18.8541 15.8257 18.3541 15.8257H3.35415C2.85415 15.8257 2.52081 15.4925 2.52081 14.9928C2.52081 14.493 2.85415 14.1598 3.35415 14.1598Z" fill="black"/>
<mask id="mask0_76_3788" style="mask-type:alpha" maskUnits="userSpaceOnUse" x="2" y="4" width="18" height="12">
<path fill-rule="evenodd" clip-rule="evenodd" d="M3.35415 5.83053H18.3541C18.8541 5.83053 19.1875 5.49736 19.1875 4.9976C19.1875 4.49784 18.8541 4.16467 18.3541 4.16467H3.35415C2.85415 4.16467 2.52081 4.49784 2.52081 4.9976C2.52081 5.49736 2.85415 5.83053 3.35415 5.83053ZM19.1875 9.99518C19.1875 10.4949 18.8541 10.8281 18.3541 10.8281H3.35415C2.85415 10.8281 2.52081 10.4949 2.52081 9.99518C2.52081 9.49542 2.85415 9.16225 3.35415 9.16225H18.3541C18.8541 9.16225 19.1875 9.49542 19.1875 9.99518ZM3.35415 14.1598H18.3541C18.8541 14.1598 19.1875 14.493 19.1875 14.9928C19.1875 15.4925 18.8541 15.8257 18.3541 15.8257H3.35415C2.85415 15.8257 2.52081 15.4925 2.52081 14.9928C2.52081 14.493 2.85415 14.1598 3.35415 14.1598Z" fill="white"/>
</mask>
<g mask="url(#mask0_76_3788)">
<rect x="0.854156" width="20" height="19.9903" fill="#6E6B7B"/>
</g>
</g>
<defs>
<clipPath id="clip0_76_3788">
<rect width="19.8611" height="20" fill="white" transform="translate(0.854156)"/>
</clipPath>
</defs>
</svg>
