<svg width="24" height="24" viewBox="0 0 24 24" fill="none" xmlns="http://www.w3.org/2000/svg">
<path fill-rule="evenodd" clip-rule="evenodd" d="M23 2.89999C23 2.79999 23 2.69999 22.9 2.59999V2.49999C22.9 2.39999 22.8 2.29999 22.7 2.19999C22.65 2.14999 22.6 2.12499 22.55 2.09999C22.5 2.07499 22.45 2.04999 22.4 1.99999H22.3C22.2 1.99999 22.1 1.99999 22 1.89999V1.99999C21.9 1.99999 21.8 1.99999 21.7 2.09999L1.7 9.09999C1.3 9.19999 1 9.49999 1 9.99999C1 10.4 1.2 10.8 1.6 11L10.2 14.8L14 23.4C14.2 23.8 14.5 24 14.9 24C15.3 24 15.7 23.7 15.8 23.3L22.8 3.29999C23 3.19999 23 3.09999 23 2.89999ZM18.2 5.39999L10.8 12.8L4.7 10.1L18.2 5.39999ZM12.2 14.2L14.9 20.3L19.6 6.79999L12.2 14.2Z" fill="black"/>
<mask id="mask0_0_18100" style="mask-type:alpha" maskUnits="userSpaceOnUse" x="1" y="1" width="22" height="23">
<path fill-rule="evenodd" clip-rule="evenodd" d="M23 2.89999C23 2.79999 23 2.69999 22.9 2.59999V2.49999C22.9 2.39999 22.8 2.29999 22.7 2.19999C22.65 2.14999 22.6 2.12499 22.55 2.09999C22.5 2.07499 22.45 2.04999 22.4 1.99999H22.3C22.2 1.99999 22.1 1.99999 22 1.89999V1.99999C21.9 1.99999 21.8 1.99999 21.7 2.09999L1.7 9.09999C1.3 9.19999 1 9.49999 1 9.99999C1 10.4 1.2 10.8 1.6 11L10.2 14.8L14 23.4C14.2 23.8 14.5 24 14.9 24C15.3 24 15.7 23.7 15.8 23.3L22.8 3.29999C23 3.19999 23 3.09999 23 2.89999ZM18.2 5.39999L10.8 12.8L4.7 10.1L18.2 5.39999ZM12.2 14.2L14.9 20.3L19.6 6.79999L12.2 14.2Z" fill="white"/>
</mask>
<g mask="url(#mask0_0_18100)">
<rect width="24" height="24" fill="#6E6B7B"/>
<rect x="-9" y="-3" width="24" height="24" fill="#6E6B7B"/>
</g>
</svg>
