<svg width="399" height="59" viewBox="0 0 399 59" fill="none" xmlns="http://www.w3.org/2000/svg">
<g clip-path="url(#clip0_85_2715)">
<path d="M116.369 35.7796C116.38 39.3902 115.838 42.27 114.766 44.3436C112.799 48.1082 109.098 49.946 103.456 49.962C98.8188 49.9752 95.6219 48.3006 93.6826 44.839C92.3451 42.4876 91.6625 39.4653 91.6523 35.8498L91.5556 1.8435L81.8016 1.87122L81.8898 32.8825C81.9088 39.5685 82.8531 44.8114 84.698 48.4752C88.1309 55.2926 94.6418 58.7314 104.058 58.7046C113.473 58.6779 119.979 55.202 123.395 48.3652C125.217 44.691 126.134 39.4428 126.115 32.7568L126.027 1.74554L116.273 1.77326L116.369 35.7796Z" fill="white"/>
<path d="M152.415 15.1718C149.737 15.1794 147.264 15.7242 145.065 16.7937C143.67 17.4716 142.318 18.4267 141.027 19.6445L141.017 16.0704L132.382 16.0949L132.499 57.2154L141.46 57.19L141.398 35.7088C141.392 33.2782 141.54 31.4141 141.84 30.1602C142.109 29.0013 142.729 27.8439 143.679 26.7171C144.88 25.2977 146.215 24.379 147.798 23.905C148.658 23.63 149.806 23.4856 151.213 23.4816C153.787 23.4743 155.432 24.3966 156.391 26.3817C157.008 27.6476 157.327 29.3839 157.333 31.5444L157.406 57.1398L166.473 57.114L166.399 31.0904C166.388 26.9591 165.817 23.8367 164.652 21.553C162.499 17.2988 158.381 15.1549 152.418 15.1718L152.415 15.1718Z" fill="white"/>
<path d="M207.925 27.0457C208.901 26.3762 209.717 25.6683 210.367 24.9244C212.457 22.556 213.512 19.5092 213.502 15.867C213.493 12.7576 212.636 9.96935 210.943 7.58491C208.075 3.55908 203.274 1.52653 196.671 1.5453L172.661 1.61353L172.819 57.101L196.466 57.0338C203.813 57.0129 209.274 54.7469 212.69 50.3017C214.983 47.3196 216.141 43.9441 216.131 40.2605C216.118 35.864 214.78 32.3545 212.15 29.8195C211.088 28.8006 209.694 27.8825 207.923 27.0432L207.925 27.0457ZM200.585 22.816C199.083 23.5745 196.885 23.9627 194.063 23.9708L182.226 24.0044L182.186 10.0413L193.77 10.0084C196.719 9.99998 198.936 10.3027 200.361 10.8996C202.734 11.9074 203.846 13.7704 203.855 16.7606C203.863 19.7508 202.793 21.7002 200.582 22.8136L200.585 22.816ZM182.25 32.2767L195.276 32.2397C198.111 32.2316 200.394 32.5706 202.072 33.2519C205.032 34.443 206.473 36.636 206.483 39.9643C206.488 42.0008 205.992 43.6761 204.969 45.0853C203.326 47.3284 200.575 48.4238 196.548 48.4352L182.293 48.4757L182.247 32.2767L182.25 32.2767Z" fill="white"/>
<path d="M228.942 1.4533L219.981 1.47876L220.139 56.9663L229.1 56.9408L228.942 1.4533Z" fill="white"/>
<path d="M243.815 1.41112L234.747 1.43689L234.775 11.2639L243.843 11.2381L243.815 1.41112Z" fill="white"/>
<path d="M243.857 15.9579L234.789 15.9836L234.905 56.9241L243.973 56.8983L243.857 15.9579Z" fill="white"/>
<path d="M269.77 14.8386C267.091 14.8462 264.618 15.3909 262.419 16.4604C261.025 17.1383 259.672 18.0935 258.381 19.3112L258.371 15.7371L249.736 15.7617L249.853 56.8822L258.814 56.8567L258.753 35.3756C258.746 32.945 258.894 31.0808 259.195 29.827C259.464 28.6681 260.083 27.5106 261.034 26.3839C262.234 24.9644 263.57 24.0458 265.152 23.5717C266.013 23.2968 267.161 23.1524 268.567 23.1484C271.141 23.1411 272.786 24.0634 273.746 26.0485C274.362 27.3143 274.681 29.0506 274.687 31.2111L274.76 56.8065L283.828 56.7808L283.754 30.7572C283.742 26.6259 283.171 23.5035 282.007 21.2197C279.854 16.9656 275.736 14.8216 269.772 14.8386L269.77 14.8386Z" fill="white"/>
<path d="M324.698 15.5476L312.871 15.5812L297.972 30.3337L297.889 1.25663L289.184 1.28137L289.341 56.7689L298.047 56.7441L298.003 41.545L301.949 37.9232L313.637 56.6998L324.888 56.6679L308.505 31.4765L324.698 15.5476Z" fill="white"/>
<path d="M357.097 22.0739C355.626 19.8567 353.48 18.038 350.717 16.6663C347.981 15.3116 345.113 14.6239 342.184 14.6322C336.396 14.6487 331.645 16.7595 328.061 20.9058C324.518 25.0034 322.732 30.3709 322.751 36.8549C322.769 43.3389 324.585 48.6864 328.153 52.3964C331.737 56.1234 336.159 58.0086 341.295 57.994C343.356 57.9881 345.241 57.7784 346.877 57.3674C349.994 56.636 352.654 55.2099 354.758 53.1456C356.022 51.9547 357.173 50.4064 358.178 48.5472C359.194 46.6684 359.805 44.9173 359.983 43.3524L360.144 41.9772L351.434 42.002L351.184 42.9005C350.762 44.4223 350.029 45.7748 349.013 46.926C347.225 48.9165 344.87 49.8891 341.814 49.8978C338.569 49.907 336.257 48.916 334.75 46.8668C333.358 44.9706 332.518 42.4621 332.259 39.3947L360.524 39.3144L360.52 38.0833C360.509 34.0615 360.303 31.1887 359.902 29.3626C359.431 26.6049 358.488 24.1526 357.097 22.0739ZM341.81 22.7621C345.533 22.7515 348.098 24.0751 349.666 26.8102C350.387 28.0636 350.9 29.7069 351.203 31.7157L332.444 31.769C332.739 29.3133 333.646 27.2937 335.205 25.6202C336.993 23.7052 339.151 22.7696 341.808 22.7621L341.81 22.7621Z" fill="white"/>
<path d="M389.714 0.816158L389.764 18.3826C389.044 17.6936 388.363 17.1506 387.71 16.7485C385.521 15.3825 382.795 14.6969 379.615 14.7059C373.868 14.7222 369.385 16.9928 366.298 21.4565C363.298 25.7812 361.79 30.946 361.807 36.8145C361.825 43.1063 363.533 48.2351 366.879 52.0649C370.275 55.9409 374.355 57.9 379.017 57.8868C381.873 57.8787 384.453 57.2947 386.684 56.14C387.974 55.4794 389.171 54.5733 390.262 53.4437L390.271 56.485L398.582 56.4614L398.424 0.791407L389.716 0.816152L389.714 0.816158ZM390.066 35.941C390.079 40.481 389.194 43.9798 387.432 46.3449C385.73 48.627 383.631 49.7449 381.013 49.7523C377.561 49.7621 375.134 48.5866 373.599 46.1603C371.967 43.5859 371.135 40.311 371.124 36.4303C371.111 31.883 372.036 28.423 373.866 26.1551C375.665 23.9286 377.952 22.8418 380.864 22.8336C383.448 22.8262 385.563 23.8299 387.335 25.9003C389.134 27.9997 390.054 31.3791 390.066 35.9434L390.066 35.941Z" fill="white"/>
<path d="M25.8679 3.56549L25.9317 26.0004C25.9344 26.9663 25.158 27.7154 24.2237 27.7181L1.78634 27.7819C0.852062 27.7845 0.0713728 27.0398 0.0686279 26.0739L0.00487434 3.63899C0.00221247 2.70227 0.778567 1.92149 1.71285 1.91884L24.1477 1.85509C25.082 1.85243 25.8628 2.62878 25.8655 3.56307L25.8679 3.56549ZM55.396 32.9287L1.8014 33.081C0.867121 33.0836 0.0907664 33.8644 0.0934214 34.7987L0.116445 42.9007C0.141591 51.7496 7.35892 58.926 16.2103 58.9008L41.1366 58.83C49.9855 58.8049 57.1643 51.5875 57.1392 42.7386L57.1162 34.6367C57.1135 33.7024 56.3327 32.926 55.3984 32.9287L55.396 32.9287ZM55.3075 1.76654L32.8726 1.83029C31.9383 1.83295 31.1619 2.61373 31.1646 3.54801L31.2283 25.9853C31.2311 26.9512 32.0118 27.696 32.9461 27.6933L55.3809 27.6296C56.3152 27.6269 57.0917 26.8778 57.0889 25.9118L57.0252 3.47695C57.0225 2.54267 56.2417 1.76632 55.3075 1.76897L55.3075 1.76654Z" fill="url(#paint0_linear_85_2715)"/>
</g>
<defs>
<linearGradient id="paint0_linear_85_2715" x1="-1.31879" y1="44.7028" x2="60.4004" y2="8.83465" gradientUnits="userSpaceOnUse">
<stop stop-color="#4772FF"/>
<stop offset="0.56" stop-color="#BE659D"/>
<stop offset="1" stop-color="#FF5C42"/>
</linearGradient>
<clipPath id="clip0_85_2715">
<rect width="398.424" height="57.0765" fill="white" transform="translate(0 1.92371) rotate(-0.162818)"/>
</clipPath>
</defs>
</svg>
